<svg id="Layer_1" data-name="Layer 1" xmlns="http://www.w3.org/2000/svg" viewBox="0 0 161.28 29.65"><defs><style>.cls-1{fill:#85caeb;}</style></defs><title>social-dental-logo</title><path class="cls-1" d="M62.09,18.13a4.32,4.32,0,0,1-.41,1.93,4,4,0,0,1-1.11,1.39,4.84,4.84,0,0,1-1.64.84,7,7,0,0,1-2,.28,7.19,7.19,0,0,1-1.35-.12,7.66,7.66,0,0,1-1.1-.29,4.68,4.68,0,0,1-.79-0.35,2.29,2.29,0,0,1-.46-0.32,0.81,0.81,0,0,1-.2-0.4A3.67,3.67,0,0,1,53,20.32c0-.22,0-0.41,0-0.56a1.66,1.66,0,0,1,.07-0.37,0.41,0.41,0,0,1,.13-0.2,0.31,0.31,0,0,1,.19-0.06,0.9,0.9,0,0,1,.43.18,7.4,7.4,0,0,0,.71.39,6.41,6.41,0,0,0,1,.39,4.87,4.87,0,0,0,1.39.18,3.2,3.2,0,0,0,.93-0.12,2.08,2.08,0,0,0,.7-0.35A1.49,1.49,0,0,0,59,19.24a1.78,1.78,0,0,0,.15-0.74,1.3,1.3,0,0,0-.26-0.82,2.59,2.59,0,0,0-.67-0.61,7.1,7.1,0,0,0-.94-0.5l-1.09-.49a10.07,10.07,0,0,1-1.09-.59,4.45,4.45,0,0,1-.95-0.79,3.72,3.72,0,0,1-.67-1.09,3.93,3.93,0,0,1-.26-1.5,4,4,0,0,1,.37-1.77,3.62,3.62,0,0,1,1-1.26,4.29,4.29,0,0,1,1.49-.75,6.69,6.69,0,0,1,2.81-.17,6.79,6.79,0,0,1,.93.21,5.07,5.07,0,0,1,.77.29,1.81,1.81,0,0,1,.44.27,0.79,0.79,0,0,1,.15.18,0.89,0.89,0,0,1,.06.2,2.05,2.05,0,0,1,0,.31c0,0.13,0,.28,0,0.47s0,0.38,0,.53a2,2,0,0,1-.05.36,0.42,0.42,0,0,1-.11.2,0.27,0.27,0,0,1-.19.07,0.9,0.9,0,0,1-.38-0.15c-0.17-.1-0.38-0.21-0.64-0.33A6.15,6.15,0,0,0,59,10.46a3.87,3.87,0,0,0-1.09-.15,2.59,2.59,0,0,0-.81.11,1.69,1.69,0,0,0-.58.31,1.24,1.24,0,0,0-.35.48,1.56,1.56,0,0,0-.11.59,1.31,1.31,0,0,0,.25.8,2.43,2.43,0,0,0,.68.6,7.12,7.12,0,0,0,1,.5l1.1,0.49a10.72,10.72,0,0,1,1.1.59,4.39,4.39,0,0,1,1,.79,3.69,3.69,0,0,1,.68,1.08,3.8,3.8,0,0,1,.26,1.46" transform="translate(-0.7 -0.23)"/><path class="cls-1" d="M73.84,17a7.36,7.36,0,0,1-.32,2.25,4.75,4.75,0,0,1-1,1.75,4.37,4.37,0,0,1-1.65,1.13,6.21,6.21,0,0,1-2.32.4,6.35,6.35,0,0,1-2.24-.36,4,4,0,0,1-1.58-1,4.24,4.24,0,0,1-.93-1.67,7.78,7.78,0,0,1-.3-2.27A7.3,7.3,0,0,1,63.84,15a4.74,4.74,0,0,1,1-1.75,4.41,4.41,0,0,1,1.65-1.13,6.15,6.15,0,0,1,2.32-.4,6.49,6.49,0,0,1,2.25.35,3.94,3.94,0,0,1,1.57,1,4.31,4.31,0,0,1,.92,1.67,7.82,7.82,0,0,1,.3,2.28m-2.8.11a7.12,7.12,0,0,0-.11-1.31,3.09,3.09,0,0,0-.38-1,1.91,1.91,0,0,0-.72-0.69,2.3,2.3,0,0,0-1.13-.25,2.39,2.39,0,0,0-1.06.22,1.9,1.9,0,0,0-.75.65,3.11,3.11,0,0,0-.44,1,5.77,5.77,0,0,0-.15,1.37,6.7,6.7,0,0,0,.12,1.31,3.26,3.26,0,0,0,.38,1,1.82,1.82,0,0,0,.72.68,2.34,2.34,0,0,0,1.12.24,2.41,2.41,0,0,0,1.07-.22,1.93,1.93,0,0,0,.75-0.64,3,3,0,0,0,.43-1A6.06,6.06,0,0,0,71,17.15" transform="translate(-0.7 -0.23)"/><path class="cls-1" d="M83.28,20.42c0,0.19,0,.34,0,0.47a2.79,2.79,0,0,1,0,.32,1,1,0,0,1-.07.21,0.79,0.79,0,0,1-.17.21,2.43,2.43,0,0,1-.44.3,4.41,4.41,0,0,1-.71.32,5.9,5.9,0,0,1-.87.23,5.38,5.38,0,0,1-1,.09,5.24,5.24,0,0,1-2-.35,3.7,3.7,0,0,1-1.44-1,4.49,4.49,0,0,1-.88-1.65,7.62,7.62,0,0,1-.3-2.22,7.69,7.69,0,0,1,.36-2.5,4.77,4.77,0,0,1,1-1.74,4,4,0,0,1,1.53-1,5.46,5.46,0,0,1,1.94-.34,4.92,4.92,0,0,1,1.63.28,4.07,4.07,0,0,1,.65.29,1.9,1.9,0,0,1,.4.28,1.16,1.16,0,0,1,.17.2,0.71,0.71,0,0,1,.08.21,3.07,3.07,0,0,1,0,.32c0,0.13,0,.28,0,0.46a2.49,2.49,0,0,1-.11.88,0.33,0.33,0,0,1-.28.25,0.67,0.67,0,0,1-.39-0.15L82,14.4a3.6,3.6,0,0,0-.67-0.33,2.56,2.56,0,0,0-.93-0.15,1.85,1.85,0,0,0-1.62.82,4.22,4.22,0,0,0-.56,2.39,6,6,0,0,0,.14,1.37,2.94,2.94,0,0,0,.42,1,1.76,1.76,0,0,0,.69.6,2.21,2.21,0,0,0,1,.2,2.52,2.52,0,0,0,1-.17,4,4,0,0,0,.71-0.37c0.2-.14.37-0.26,0.51-0.37a0.6,0.6,0,0,1,.35-0.17,0.25,0.25,0,0,1,.16.05,0.38,0.38,0,0,1,.1.2,2.51,2.51,0,0,1,.06.37c0,0.15,0,.35,0,0.58" transform="translate(-0.7 -0.23)"/><path class="cls-1" d="M88.17,9.06a1.52,1.52,0,0,1-.33,1.13,2.65,2.65,0,0,1-2.48,0A1.48,1.48,0,0,1,85,9.11,1.56,1.56,0,0,1,85.37,8a2.6,2.6,0,0,1,2.48,0,1.48,1.48,0,0,1,.32,1.1M88,22a0.29,0.29,0,0,1-.07.19,0.48,0.48,0,0,1-.22.14,1.93,1.93,0,0,1-.42.08,8.06,8.06,0,0,1-1.32,0,1.92,1.92,0,0,1-.42-0.08,0.48,0.48,0,0,1-.22-0.14A0.29,0.29,0,0,1,85.25,22V12.34a0.29,0.29,0,0,1,.07-0.19A0.5,0.5,0,0,1,85.53,12a1.85,1.85,0,0,1,.42-0.09,6.59,6.59,0,0,1,1.32,0,1.86,1.86,0,0,1,.42.09,0.5,0.5,0,0,1,.22.14,0.29,0.29,0,0,1,.07.19V22Z" transform="translate(-0.7 -0.23)"/><path class="cls-1" d="M98.45,22a0.29,0.29,0,0,1-.11.24,0.75,0.75,0,0,1-.34.13,4.82,4.82,0,0,1-.69,0,4.89,4.89,0,0,1-.71,0,0.61,0.61,0,0,1-.31-0.12A0.31,0.31,0,0,1,96.2,22V21.22a4.39,4.39,0,0,1-1.36,1,3.94,3.94,0,0,1-1.69.36,4.73,4.73,0,0,1-1.41-.2,3.16,3.16,0,0,1-1.11-.59,2.66,2.66,0,0,1-.73-1,3.33,3.33,0,0,1-.26-1.36A3.08,3.08,0,0,1,90,18a2.68,2.68,0,0,1,1-1,4.88,4.88,0,0,1,1.63-.6,11.58,11.58,0,0,1,2.26-.2h0.94V15.57a3.07,3.07,0,0,0-.09-0.79,1.32,1.32,0,0,0-.3-0.57,1.24,1.24,0,0,0-.56-0.33A3,3,0,0,0,94,13.77a4.47,4.47,0,0,0-1.21.15,7,7,0,0,0-.94.33c-0.27.12-.5,0.23-0.69,0.33a1,1,0,0,1-.45.15,0.32,0.32,0,0,1-.21-0.08,0.55,0.55,0,0,1-.15-0.22,1.5,1.5,0,0,1-.09-0.35,3,3,0,0,1,0-.45,2,2,0,0,1,.05-0.53,0.82,0.82,0,0,1,.21-0.35A2,2,0,0,1,91,12.42a6.19,6.19,0,0,1,.89-0.35A8,8,0,0,1,93,11.81a8.17,8.17,0,0,1,3.18.12,3.26,3.26,0,0,1,1.32.68,2.64,2.64,0,0,1,.76,1.18,5.51,5.51,0,0,1,.24,1.72V22Zm-2.67-4.13h-1a5.55,5.55,0,0,0-1.12.1,2.16,2.16,0,0,0-.76.29,1.2,1.2,0,0,0-.43.47,1.42,1.42,0,0,0-.13.63,1.22,1.22,0,0,0,.38,1,1.53,1.53,0,0,0,1.06.35,2,2,0,0,0,1.05-.29,4.4,4.4,0,0,0,1-.85V17.86Z" transform="translate(-0.7 -0.23)"/><path class="cls-1" d="M103,22a0.29,0.29,0,0,1-.07.19,0.48,0.48,0,0,1-.22.14,1.93,1.93,0,0,1-.42.08,8.06,8.06,0,0,1-1.32,0,1.92,1.92,0,0,1-.42-0.08,0.48,0.48,0,0,1-.22-0.14,0.29,0.29,0,0,1-.07-0.19V7.75a0.31,0.31,0,0,1,.07-0.19,0.48,0.48,0,0,1,.22-0.15A1.9,1.9,0,0,1,101,7.32a6.81,6.81,0,0,1,1.32,0,1.91,1.91,0,0,1,.42.09,0.48,0.48,0,0,1,.22.15,0.31,0.31,0,0,1,.07.19V22Z" transform="translate(-0.7 -0.23)"/><path class="cls-1" d="M117.48,15.13a9.55,9.55,0,0,1-.5,3.29,5.58,5.58,0,0,1-1.44,2.23,5.77,5.77,0,0,1-2.29,1.27,11.18,11.18,0,0,1-3.2.4h-3.34a0.88,0.88,0,0,1-.6-0.21,0.86,0.86,0,0,1-.24-0.68V9.24a0.87,0.87,0,0,1,.24-0.69,0.89,0.89,0,0,1,.6-0.21h3.59a10,10,0,0,1,3.17.44,5.73,5.73,0,0,1,2.19,1.3A5.55,5.55,0,0,1,117,12.2a8.46,8.46,0,0,1,.46,2.93m-2.94.1a7,7,0,0,0-.23-1.85,3.94,3.94,0,0,0-.75-1.48,3.46,3.46,0,0,0-1.32-1,5.34,5.34,0,0,0-2.11-.35H108.7v9.5h1.48a5.58,5.58,0,0,0,2-.3,3.28,3.28,0,0,0,1.33-.91,3.94,3.94,0,0,0,.8-1.52,7.61,7.61,0,0,0,.26-2.12" transform="translate(-0.7 -0.23)"/><path class="cls-1" d="M128.11,16.86a1,1,0,0,1-.22.73,0.8,0.8,0,0,1-.61.24h-5.86a4.05,4.05,0,0,0,.14,1.12,2.14,2.14,0,0,0,.47.85,2,2,0,0,0,.82.53,3.52,3.52,0,0,0,1.2.18,6.75,6.75,0,0,0,1.25-.1,8.4,8.4,0,0,0,.93-0.23l0.65-.23a1.2,1.2,0,0,1,.42-0.1,0.31,0.31,0,0,1,.16,0,0.28,0.28,0,0,1,.11.14,0.9,0.9,0,0,1,.06.28c0,0.12,0,.27,0,0.45s0,0.29,0,.4a2.61,2.61,0,0,1,0,.29,0.72,0.72,0,0,1-.07.2,0.77,0.77,0,0,1-.11.16A1.32,1.32,0,0,1,127,22a6,6,0,0,1-.8.25q-0.49.12-1.11,0.22a9.28,9.28,0,0,1-1.34.09,7.07,7.07,0,0,1-2.25-.32,4,4,0,0,1-1.61-1,4.08,4.08,0,0,1-1-1.66,7.79,7.79,0,0,1-.32-2.35,7.49,7.49,0,0,1,.34-2.32,4.86,4.86,0,0,1,1-1.75,4.2,4.2,0,0,1,1.55-1.1,5.34,5.34,0,0,1,2.06-.38,5.4,5.4,0,0,1,2.07.36A3.74,3.74,0,0,1,127,13a4,4,0,0,1,.81,1.5,6.54,6.54,0,0,1,.26,1.88v0.43Zm-2.64-.78a2.79,2.79,0,0,0-.46-1.8,1.77,1.77,0,0,0-1.52-.65,2,2,0,0,0-.9.2,1.86,1.86,0,0,0-.64.52,2.42,2.42,0,0,0-.39.78,3.85,3.85,0,0,0-.16,1h4.06Z" transform="translate(-0.7 -0.23)"/><path class="cls-1" d="M139.1,22a0.29,0.29,0,0,1-.07.19,0.47,0.47,0,0,1-.22.14,1.84,1.84,0,0,1-.41.08q-0.27,0-.65,0c-0.27,0-.49,0-0.66,0a1.82,1.82,0,0,1-.42-0.08,0.48,0.48,0,0,1-.22-0.14,0.3,0.3,0,0,1-.06-0.19v-5.5a4.66,4.66,0,0,0-.1-1.1,2.18,2.18,0,0,0-.3-0.69,1.33,1.33,0,0,0-.5-0.44,1.57,1.57,0,0,0-.72-0.16,1.8,1.8,0,0,0-1,.38,5.69,5.69,0,0,0-1.1,1.1V22a0.3,0.3,0,0,1-.06.19,0.49,0.49,0,0,1-.22.14,1.92,1.92,0,0,1-.42.08,8.06,8.06,0,0,1-1.32,0,2,2,0,0,1-.42-0.08,0.48,0.48,0,0,1-.22-0.14A0.29,0.29,0,0,1,129.9,22V12.32a0.33,0.33,0,0,1,.05-0.19,0.4,0.4,0,0,1,.19-0.14,1.61,1.61,0,0,1,.36-0.08,5,5,0,0,1,.56,0,5.22,5.22,0,0,1,.57,0A1.32,1.32,0,0,1,132,12a0.39,0.39,0,0,1,.18.14,0.33,0.33,0,0,1,.05.19v1.11a6.16,6.16,0,0,1,1.63-1.3,3.66,3.66,0,0,1,1.72-.43,3.81,3.81,0,0,1,1.66.32,2.9,2.9,0,0,1,1.09.88,3.59,3.59,0,0,1,.6,1.3A7.62,7.62,0,0,1,139.1,16v6Z" transform="translate(-0.7 -0.23)"/><path class="cls-1" d="M147,21a3.38,3.38,0,0,1-.06.73,0.8,0.8,0,0,1-.16.36,0.86,0.86,0,0,1-.29.18,2.73,2.73,0,0,1-.44.14,4.82,4.82,0,0,1-.55.09,5.68,5.68,0,0,1-.6,0,4.3,4.3,0,0,1-1.4-.2,2.32,2.32,0,0,1-1-.63,2.63,2.63,0,0,1-.57-1.07,5.68,5.68,0,0,1-.18-1.53V14.16h-1.16a0.35,0.35,0,0,1-.31-0.25,2.37,2.37,0,0,1-.11-0.85,4.37,4.37,0,0,1,0-.53,1.26,1.26,0,0,1,.08-0.34,0.41,0.41,0,0,1,.14-0.18,0.34,0.34,0,0,1,.19-0.05h1.15V9.8a0.33,0.33,0,0,1,.06-0.19,0.46,0.46,0,0,1,.22-0.15,1.74,1.74,0,0,1,.42-0.09q0.26,0,.65,0c0.27,0,.49,0,0.66,0a1.66,1.66,0,0,1,.42.09,0.5,0.5,0,0,1,.22.15,0.32,0.32,0,0,1,.06.19V12h2.1a0.34,0.34,0,0,1,.19.05,0.41,0.41,0,0,1,.14.18,1.31,1.31,0,0,1,.08.34,4.37,4.37,0,0,1,0,.53,2.39,2.39,0,0,1-.11.85,0.35,0.35,0,0,1-.31.25h-2.11v4.53a2.25,2.25,0,0,0,.25,1.18,1,1,0,0,0,.89.39,1.78,1.78,0,0,0,.39,0l0.31-.09,0.23-.09a0.45,0.45,0,0,1,.17,0,0.23,0.23,0,0,1,.12,0,0.25,0.25,0,0,1,.09.15,2.33,2.33,0,0,1,.06.31,3.73,3.73,0,0,1,0,.5" transform="translate(-0.7 -0.23)"/><path class="cls-1" d="M157,22a0.29,0.29,0,0,1-.11.24,0.75,0.75,0,0,1-.34.13,4.81,4.81,0,0,1-.69,0,4.89,4.89,0,0,1-.71,0,0.61,0.61,0,0,1-.31-0.12,0.31,0.31,0,0,1-.09-0.24V21.22a4.39,4.39,0,0,1-1.35,1,3.94,3.94,0,0,1-1.69.36,4.73,4.73,0,0,1-1.41-.2,3.17,3.17,0,0,1-1.11-.59,2.66,2.66,0,0,1-.73-1,3.33,3.33,0,0,1-.26-1.36,3.08,3.08,0,0,1,.33-1.46,2.68,2.68,0,0,1,1-1,4.89,4.89,0,0,1,1.63-.6,11.59,11.59,0,0,1,2.26-.2h0.94V15.57a3.07,3.07,0,0,0-.09-0.79,1.33,1.33,0,0,0-.3-0.57,1.25,1.25,0,0,0-.56-0.33,3,3,0,0,0-.87-0.11,4.47,4.47,0,0,0-1.22.15,7,7,0,0,0-.94.33c-0.27.12-.5,0.23-0.69,0.33a1,1,0,0,1-.45.15,0.32,0.32,0,0,1-.21-0.08,0.55,0.55,0,0,1-.15-0.22,1.5,1.5,0,0,1-.09-0.35,3,3,0,0,1,0-.45,2,2,0,0,1,.05-0.53,0.81,0.81,0,0,1,.21-0.35,2,2,0,0,1,.53-0.35,6.19,6.19,0,0,1,.89-0.35,8,8,0,0,1,1.11-.27,8.17,8.17,0,0,1,3.18.12,3.25,3.25,0,0,1,1.32.68,2.64,2.64,0,0,1,.76,1.18,5.51,5.51,0,0,1,.24,1.72V22Zm-2.67-4.13h-1a5.55,5.55,0,0,0-1.12.1,2.14,2.14,0,0,0-.76.29,1.2,1.2,0,0,0-.43.47,1.42,1.42,0,0,0-.13.63,1.22,1.22,0,0,0,.38,1,1.54,1.54,0,0,0,1.06.35,2,2,0,0,0,1.05-.29,4.4,4.4,0,0,0,1-.85V17.86Z" transform="translate(-0.7 -0.23)"/><path class="cls-1" d="M162,22a0.3,0.3,0,0,1-.06.19,0.48,0.48,0,0,1-.22.14,1.92,1.92,0,0,1-.42.08,8.06,8.06,0,0,1-1.32,0,2,2,0,0,1-.42-0.08,0.48,0.48,0,0,1-.22-0.14,0.29,0.29,0,0,1-.07-0.19V7.75a0.31,0.31,0,0,1,.07-0.19,0.49,0.49,0,0,1,.22-0.15A1.93,1.93,0,0,1,160,7.32a6.81,6.81,0,0,1,1.32,0,1.9,1.9,0,0,1,.42.09,0.49,0.49,0,0,1,.22.15,0.32,0.32,0,0,1,.06.19V22Z" transform="translate(-0.7 -0.23)"/><path class="cls-1" d="M35.45,17.7a9.22,9.22,0,0,0,4.16-7.41c0-5.56-5.75-10.06-12.83-10.06-5.86,0-10.8,3.08-12.34,7.29l-0.76,0C6.6,7.5.85,12,.85,17.56A9.22,9.22,0,0,0,5,25,12.69,12.69,0,0,1,.7,29.88c3-.5,5.72-1.26,7.73-3.14a15.8,15.8,0,0,0,5.25.88c5.86,0,10.8-3.08,12.34-7.29l0.76,0A15.8,15.8,0,0,0,32,19.46c2,1.88,4.69,2.64,7.73,3.14a12.69,12.69,0,0,1-4.31-4.91" transform="translate(-0.7 -0.23)"/></svg>